<svg viewBox="0 0 288 288" xmlns="http://www.w3.org/2000/svg" xmlns:xlink="http://www.w3.org/1999/xlink"><clipPath id="a"><path d="m28.49 32.74h239.02v230.41h-239.02z"/></clipPath><g fill="#091f44"><path d="m29.54 77.31h30.4v109.14h-30.4z"/><path d="m69.11 77.31h30.24v44.28l37.58-44.28h35.86l-41.32 46.93 42.72 62.21h-36.33l-27.44-40.54-11.07 12.32v28.22h-30.24z"/><path d="m181.57 77.31h75.17v25.72h-45.23v16.53h39.77v23.85h-39.77v17.31h46v25.73h-75.94z"/></g><g clip-path="url(#a)"><g fill="#231f20"><path d="m36.67 214.8a15.85 15.85 0 0 0 2.71-.19 4.7 4.7 0 0 0 1.74-.62 2.42 2.42 0 0 0 .93-1.08 3.87 3.87 0 0 0 .28-1.55h1.05v8.18h-1.05a4.33 4.33 0 0 0 -.25-1.56 2.3 2.3 0 0 0 -.9-1.09 4.87 4.87 0 0 0 -1.74-.66 14.06 14.06 0 0 0 -2.77-.23v6.78a4.71 4.71 0 0 0 .24 1.63 2.17 2.17 0 0 0 .82 1.05 3.86 3.86 0 0 0 1.55.57 14.24 14.24 0 0 0 2.36.16 13.87 13.87 0 0 0 2.7-.22 4.77 4.77 0 0 0 1.86-.77 3.88 3.88 0 0 0 1.2-1.42 9.54 9.54 0 0 0 .75-2.2h1.14l-.45 5.9h-18.62v-1.14a8.92 8.92 0 0 0 1.7-.18 2 2 0 0 0 1-.51 1.88 1.88 0 0 0 .48-1 9.68 9.68 0 0 0 .12-1.7v-13.95a11.14 11.14 0 0 0 -.1-1.7 2.07 2.07 0 0 0 -.42-1 1.75 1.75 0 0 0 -.92-.51 10.35 10.35 0 0 0 -1.56-.19v-1.2h17.33l.27 5.28h-1a6.22 6.22 0 0 0 -.58-2 3.16 3.16 0 0 0 -1.11-1.21 4.77 4.77 0 0 0 -1.79-.63 16.17 16.17 0 0 0 -2.61-.18h-3.8a.45.45 0 0 0 -.51.51z"/><path d="m58.43 221.82a18.26 18.26 0 0 0 .12 2.37 3 3 0 0 0 .47 1.34 1.57 1.57 0 0 0 1 .63 8.92 8.92 0 0 0 1.7.18v1.14h-9.72v-1.14a8 8 0 0 0 1.69-.19 1.81 1.81 0 0 0 1-.62 2.6 2.6 0 0 0 .48-1.27 16.23 16.23 0 0 0 .12-2.23v-12.17a17.25 17.25 0 0 0 -.1-2.09 3.06 3.06 0 0 0 -.42-1.3 1.63 1.63 0 0 0 -.92-.67 6.36 6.36 0 0 0 -1.55-.26v-1.14h9.1v1.14a5.2 5.2 0 0 0 -1.55.24 1.69 1.69 0 0 0 -.89.7 3.31 3.31 0 0 0 -.42 1.37 19 19 0 0 0 -.11 2.22z"/><path d="m64.82 220.44h1.1a7.48 7.48 0 0 0 .8 2.43 6.26 6.26 0 0 0 1.47 1.82 6.41 6.41 0 0 0 2 1.16 7.49 7.49 0 0 0 2.5.4 5.4 5.4 0 0 0 3.51-1.05 3.45 3.45 0 0 0 1.29-2.84 3.65 3.65 0 0 0 -.26-1.38 3.61 3.61 0 0 0 -.85-1.22 7.88 7.88 0 0 0 -1.61-1.15 26.43 26.43 0 0 0 -2.53-1.23 28.18 28.18 0 0 1 -3.12-1.56 9 9 0 0 1 -2-1.56 4.85 4.85 0 0 1 -1.06-1.72 6.36 6.36 0 0 1 -.31-2.08 6.48 6.48 0 0 1 .49-2.55 6 6 0 0 1 1.39-2 6.25 6.25 0 0 1 2.13-1.31 7.58 7.58 0 0 1 2.7-.47 7.06 7.06 0 0 1 2.46.42 8.45 8.45 0 0 1 2.31 1.35l.77-1.35h.69l.33 6h-1.08a7.5 7.5 0 0 0 -2.08-3.66 4.79 4.79 0 0 0 -3.28-1.2 4.4 4.4 0 0 0 -2.91.9 3 3 0 0 0 -1.08 2.41 3.38 3.38 0 0 0 .24 1.3 3.32 3.32 0 0 0 .78 1.11 7.82 7.82 0 0 0 1.41 1 19.53 19.53 0 0 0 2.16 1.09 39.26 39.26 0 0 1 3.69 1.85 12 12 0 0 1 2.33 1.71 5.14 5.14 0 0 1 1.23 1.79 5.93 5.93 0 0 1 .36 2.12 6.23 6.23 0 0 1 -2.28 4.91 7.76 7.76 0 0 1 -2.57 1.4 10.48 10.48 0 0 1 -3.3.49 9.2 9.2 0 0 1 -3.07-.48 9.49 9.49 0 0 1 -2.78-1.62l-.79 1.48h-.68z"/><path d="m90.21 214.8a15.93 15.93 0 0 0 2.71-.19 4.7 4.7 0 0 0 1.74-.62 2.42 2.42 0 0 0 .93-1.08 4 4 0 0 0 .28-1.55h1v8.18h-1a4.56 4.56 0 0 0 -.25-1.56 2.3 2.3 0 0 0 -.9-1.09 4.87 4.87 0 0 0 -1.74-.66 14.13 14.13 0 0 0 -2.77-.23v6.78a4.73 4.73 0 0 0 .23 1.63 2.19 2.19 0 0 0 .83 1.05 3.81 3.81 0 0 0 1.54.57 14.37 14.37 0 0 0 2.37.16 13.87 13.87 0 0 0 2.7-.22 4.77 4.77 0 0 0 1.86-.77 3.88 3.88 0 0 0 1.2-1.42 9.54 9.54 0 0 0 .75-2.2h1.14l-.45 5.9h-18.62v-1.14a8.81 8.81 0 0 0 1.69-.18 2.06 2.06 0 0 0 1-.51 1.88 1.88 0 0 0 .48-1 9.68 9.68 0 0 0 .12-1.7v-13.95a11 11 0 0 0 -.11-1.7 2.07 2.07 0 0 0 -.42-1 1.72 1.72 0 0 0 -.91-.51 10.35 10.35 0 0 0 -1.56-.19v-1.2h17.33l.27 5.28h-1a6.21 6.21 0 0 0 -.59-2 3.16 3.16 0 0 0 -1.11-1.21 4.72 4.72 0 0 0 -1.78-.63 16.17 16.17 0 0 0 -2.61-.18h-3.85a.44.44 0 0 0 -.5.51z"/><path d="m125 227.78-14.26-18.78h-.12v12.8a20.73 20.73 0 0 0 .1 2.36 3.12 3.12 0 0 0 .42 1.35 1.47 1.47 0 0 0 .9.63 7.42 7.42 0 0 0 1.55.18v1.14h-8.07v-1.14a8.08 8.08 0 0 0 1.7-.19 1.81 1.81 0 0 0 1-.62 2.6 2.6 0 0 0 .48-1.27 16.23 16.23 0 0 0 .12-2.23v-12.15a15.21 15.21 0 0 0 -.11-2.09 3.07 3.07 0 0 0 -.41-1.3 1.69 1.69 0 0 0 -.92-.68 6.51 6.51 0 0 0 -1.56-.25v-1.14h5.94l13.1 17.48h.14v-11.81a20.82 20.82 0 0 0 -.11-2.36 3.16 3.16 0 0 0 -.42-1.36 1.47 1.47 0 0 0 -.9-.63 7.31 7.31 0 0 0 -1.54-.18v-1.14h8.06v1.14a8.7 8.7 0 0 0 -1.69.19 1.84 1.84 0 0 0 -1 .62 2.64 2.64 0 0 0 -.47 1.29 16.37 16.37 0 0 0 -.12 2.22v17.92z"/><path d="m154.29 222.72a11.35 11.35 0 0 0 .12 1.84 2.08 2.08 0 0 0 .47 1.08 1.88 1.88 0 0 0 1 .52 8.81 8.81 0 0 0 1.69.18v1.14h-9.71v-1.14a8.81 8.81 0 0 0 1.69-.18 2.06 2.06 0 0 0 1-.51 1.88 1.88 0 0 0 .48-1 9.68 9.68 0 0 0 .12-1.7v-6.51h-12.15v6.3a11.35 11.35 0 0 0 .12 1.84 2.07 2.07 0 0 0 .46 1.08 1.88 1.88 0 0 0 1 .52 8.81 8.81 0 0 0 1.69.18v1.14h-9.71v-1.14a8.71 8.71 0 0 0 1.69-.18 2.06 2.06 0 0 0 1-.51 1.88 1.88 0 0 0 .48-1 9.68 9.68 0 0 0 .12-1.7v-13.97a11 11 0 0 0 -.11-1.7 2.07 2.07 0 0 0 -.42-1 1.6 1.6 0 0 0 -.91-.51 10.35 10.35 0 0 0 -1.56-.19v-1.2h9.15v1.14a7.31 7.31 0 0 0 -1.54.18 1.64 1.64 0 0 0 -.9.54 2.23 2.23 0 0 0 -.42 1.08 12.81 12.81 0 0 0 -.1 1.83v5.75h12.14v-6a11 11 0 0 0 -.11-1.7 2.07 2.07 0 0 0 -.42-1 1.6 1.6 0 0 0 -.91-.51 10.35 10.35 0 0 0 -1.56-.19v-1.12h9.11v1.14a7.31 7.31 0 0 0 -1.54.18 1.64 1.64 0 0 0 -.9.54 2.23 2.23 0 0 0 -.42 1.08 12.58 12.58 0 0 0 -.11 1.83z"/><path d="m172.73 204.1a12.85 12.85 0 0 1 4.91.93 12.37 12.37 0 0 1 4 2.55 11.84 11.84 0 0 1 2.64 3.81 11.59 11.59 0 0 1 1 4.73 10.83 10.83 0 0 1 -1 4.56 11.67 11.67 0 0 1 -2.65 3.7 12.57 12.57 0 0 1 -4 2.49 13.57 13.57 0 0 1 -9.77 0 12.57 12.57 0 0 1 -4-2.49 11.82 11.82 0 0 1 -2.65-3.7 10.82 10.82 0 0 1 -1-4.56 11.74 11.74 0 0 1 3.6-8.54 12.21 12.21 0 0 1 3.95-2.55 12.9 12.9 0 0 1 4.92-.93m0 22a8.75 8.75 0 0 0 3.55-.69 7.54 7.54 0 0 0 2.7-2 8.9 8.9 0 0 0 1.72-3.14 13.26 13.26 0 0 0 .6-4.12 14.57 14.57 0 0 0 -.6-4.33 9.74 9.74 0 0 0 -1.71-3.3 7.49 7.49 0 0 0 -2.7-2.1 9.07 9.07 0 0 0 -7.13 0 7.49 7.49 0 0 0 -2.7 2.1 9.74 9.74 0 0 0 -1.71 3.3 14.58 14.58 0 0 0 -.59 4.33 13.27 13.27 0 0 0 .59 4.12 9 9 0 0 0 1.71 3.14 7.37 7.37 0 0 0 2.7 2 8.88 8.88 0 0 0 3.57.69"/><path d="m211.07 223 4.67-13q.42-1.17.6-1.86a4.85 4.85 0 0 0 .18-1.2 1.11 1.11 0 0 0 -.49-1.06 3.82 3.82 0 0 0 -1.76-.29v-1.19h7.29v1.14a3.23 3.23 0 0 0 -2.08.57 4.16 4.16 0 0 0 -1.19 1.86l-7.52 19.81h-1.05l-5.72-17.05-6.38 17.05h-1.05l-6.24-17.2c-.36-1-.68-1.77-1-2.42a6.19 6.19 0 0 0 -.93-1.54 2.8 2.8 0 0 0 -1.12-.81 4.31 4.31 0 0 0 -1.53-.24v-1.17h9.77v1.17a5.89 5.89 0 0 0 -2.14.27 1 1 0 0 0 -.62 1 4 4 0 0 0 .12.9 12.34 12.34 0 0 0 .36 1.2l4.56 13.88 3.68-10.38c.28-.77.56-1.5.83-2.17s.48-1.27.64-1.81c-.28-.58-.53-1.06-.76-1.44a4.39 4.39 0 0 0 -.69-.9 2.08 2.08 0 0 0 -.72-.47 2.56 2.56 0 0 0 -.79-.13v-1.12h9.17v1.17a13.29 13.29 0 0 0 -1.41.06 2.38 2.38 0 0 0 -.82.2.71.71 0 0 0 -.39.37 1.41 1.41 0 0 0 -.11.57 4.55 4.55 0 0 0 .17 1.09c.1.43.26 1 .46 1.64z"/><path d="m229.11 214.8a16 16 0 0 0 2.72-.19 4.72 4.72 0 0 0 1.73-.62 2.42 2.42 0 0 0 .93-1.08 3.86 3.86 0 0 0 .29-1.55h1.05v8.18h-1.05a4.32 4.32 0 0 0 -.26-1.56 2.3 2.3 0 0 0 -.9-1.09 4.89 4.89 0 0 0 -1.73-.66 14.17 14.17 0 0 0 -2.78-.23v6.78a4.71 4.71 0 0 0 .24 1.63 2.19 2.19 0 0 0 .83 1.05 3.81 3.81 0 0 0 1.54.57 14.37 14.37 0 0 0 2.37.16 13.87 13.87 0 0 0 2.7-.22 4.72 4.72 0 0 0 1.85-.77 3.88 3.88 0 0 0 1.2-1.42 9.54 9.54 0 0 0 .75-2.2h1.14l-.45 5.9h-18.61v-1.14a8.81 8.81 0 0 0 1.69-.18 2 2 0 0 0 1-.51 1.81 1.81 0 0 0 .48-1 9.68 9.68 0 0 0 .12-1.7v-13.95a11.14 11.14 0 0 0 -.1-1.7 2.07 2.07 0 0 0 -.42-1 1.76 1.76 0 0 0 -.91-.51 10.35 10.35 0 0 0 -1.56-.19v-1.2h17.32l.27 5.28h-1.05a6.22 6.22 0 0 0 -.58-2 3.16 3.16 0 0 0 -1.11-1.21 4.72 4.72 0 0 0 -1.78-.63 16.17 16.17 0 0 0 -2.61-.18h-3.81a.45.45 0 0 0 -.51.51z"/><path d="m262.8 210.19a5.69 5.69 0 0 1 -1.43 4 7.78 7.78 0 0 1 -4.59 2.13l6.62 8a5 5 0 0 0 1.79 1.43 9.15 9.15 0 0 0 2.32.64v1.14h-5.78l-7.35-9.41a5.52 5.52 0 0 0 -.73-.81 2.82 2.82 0 0 0 -.72-.46 2.78 2.78 0 0 0 -.87-.21c-.33 0-.73-.05-1.19-.05v6.24a9.84 9.84 0 0 0 .14 1.81 1.88 1.88 0 0 0 .57 1.09 2.45 2.45 0 0 0 1.26.53 14 14 0 0 0 2.17.13v1.14h-10.58v-1.14a8.81 8.81 0 0 0 1.69-.18 2.06 2.06 0 0 0 1-.51 1.88 1.88 0 0 0 .48-1 9.68 9.68 0 0 0 .12-1.7v-14a11 11 0 0 0 -.11-1.7 2.07 2.07 0 0 0 -.42-1 1.6 1.6 0 0 0 -.91-.51 10.35 10.35 0 0 0 -1.56-.19v-1.2h9.41a11.36 11.36 0 0 1 6.4 1.53 4.86 4.86 0 0 1 2.26 4.26m-11.92 4.81h2.13a7.38 7.38 0 0 0 4.45-1.09 4.24 4.24 0 0 0 1.46-3.61 4.52 4.52 0 0 0 -1.16-3.48 5.22 5.22 0 0 0 -3.61-1.05h-2.76a.45.45 0 0 0 -.51.51z"/><path d="m36.54 258.17a9.89 9.89 0 0 0 .13 1.81 1.76 1.76 0 0 0 .58 1.06 2.63 2.63 0 0 0 1.25.52 15.55 15.55 0 0 0 2.14.17v1.12h-10.44v-1.12a9.68 9.68 0 0 0 1.67-.17 2 2 0 0 0 1-.51 1.81 1.81 0 0 0 .48-1 10.76 10.76 0 0 0 .11-1.68v-13.73a10.71 10.71 0 0 0 -.1-1.67 2.13 2.13 0 0 0 -.41-1 1.59 1.59 0 0 0 -.9-.5 10.06 10.06 0 0 0 -1.53-.19v-1.12h17l.33 5.63h-1a7.48 7.48 0 0 0 -.56-2.08 3.16 3.16 0 0 0 -1.08-1.28 4.48 4.48 0 0 0 -1.75-.67 16.27 16.27 0 0 0 -2.66-.19h-3.8a.44.44 0 0 0 -.5.5v8.93a15.51 15.51 0 0 0 2.43-.16 4.61 4.61 0 0 0 1.68-.57 2.83 2.83 0 0 0 1-1.12 5.12 5.12 0 0 0 .44-1.83h1v8.64h-1a7.18 7.18 0 0 0 -.47-1.86 2.59 2.59 0 0 0 -1-1.15 4.32 4.32 0 0 0 -1.64-.59 14.42 14.42 0 0 0 -2.5-.18z"/><path d="m62.56 239.86a12.68 12.68 0 0 1 4.84.92 12.2 12.2 0 0 1 3.89 2.5 11.6 11.6 0 0 1 2.59 3.72 11.41 11.41 0 0 1 1 4.65 10.6 10.6 0 0 1 -1 4.48 11.46 11.46 0 0 1 -2.61 3.64 12.43 12.43 0 0 1 -3.89 2.45 13.28 13.28 0 0 1 -9.61 0 12.43 12.43 0 0 1 -3.89-2.45 11.46 11.46 0 0 1 -2.61-3.64 10.6 10.6 0 0 1 -1-4.48 11.62 11.62 0 0 1 3.54-8.4 12.2 12.2 0 0 1 3.89-2.5 12.66 12.66 0 0 1 4.83-.92m0 21.67a8.67 8.67 0 0 0 3.5-.68 7.4 7.4 0 0 0 2.65-2 8.57 8.57 0 0 0 1.69-3.08 12.86 12.86 0 0 0 .6-4 14.14 14.14 0 0 0 -.6-4.26 9.55 9.55 0 0 0 -1.67-3.24 7.58 7.58 0 0 0 -2.66-2.07 8.89 8.89 0 0 0 -7 0 7.58 7.58 0 0 0 -2.66 2.07 9.74 9.74 0 0 0 -1.68 3.24 14.48 14.48 0 0 0 -.59 4.26 13.16 13.16 0 0 0 .59 4 9 9 0 0 0 1.68 3.08 7.26 7.26 0 0 0 2.66 2 8.74 8.74 0 0 0 3.5.68"/><path d="m97.79 253.72a16.64 16.64 0 0 1 -.46 4.09 7.13 7.13 0 0 1 -1.47 2.95 6.28 6.28 0 0 1 -2.64 1.78 11.09 11.09 0 0 1 -3.92.61 15.18 15.18 0 0 1 -3.8-.43 6.38 6.38 0 0 1 -2.72-1.42 6 6 0 0 1 -1.62-2.57 12.64 12.64 0 0 1 -.53-3.92v-7.81c0-1.45 0-2.57-.1-3.36a3 3 0 0 0 -.6-1.73 1.8 1.8 0 0 0 -1-.52 7.71 7.71 0 0 0 -1.61-.13v-1.12h10v1.12a9.93 9.93 0 0 0 -1.62.11 1.54 1.54 0 0 0 -1 .59 3.34 3.34 0 0 0 -.53 1.7c-.08.78-.12 1.89-.12 3.34v8a10.31 10.31 0 0 0 .31 2.67 4.75 4.75 0 0 0 1 2 4.39 4.39 0 0 0 1.84 1.23 8.28 8.28 0 0 0 2.78.41 5.68 5.68 0 0 0 4.43-1.64 7 7 0 0 0 1.59-4.81v-7.1a28.1 28.1 0 0 0 -.21-4 3.44 3.44 0 0 0 -.76-1.91 1.94 1.94 0 0 0 -1-.49 9.38 9.38 0 0 0 -1.53-.1v-1.12h8.5v1.12a7.26 7.26 0 0 0 -1.55.14 1.65 1.65 0 0 0 -1 .65 4.27 4.27 0 0 0 -.59 1.93c-.09.88-.14 2.13-.14 3.76z"/><path d="m122.34 263.15-14-18.45h-.12v12.58a23 23 0 0 0 .1 2.33 3.11 3.11 0 0 0 .42 1.33 1.45 1.45 0 0 0 .88.62 7.92 7.92 0 0 0 1.52.17v1.12h-7.93v-1.12a7.85 7.85 0 0 0 1.67-.19 1.79 1.79 0 0 0 1-.6 2.5 2.5 0 0 0 .47-1.26 15.69 15.69 0 0 0 .12-2.19v-12a16.65 16.65 0 0 0 -.1-2.05 3.11 3.11 0 0 0 -.41-1.28 1.7 1.7 0 0 0 -.9-.66 6.41 6.41 0 0 0 -1.53-.25v-1.12h5.83l12.88 17.18h.12v-11.58a20.54 20.54 0 0 0 -.1-2.32 3.11 3.11 0 0 0 -.42-1.34 1.45 1.45 0 0 0 -.88-.62 7.92 7.92 0 0 0 -1.52-.17v-1.12h7.93v1.12a7.67 7.67 0 0 0 -1.66.19 1.78 1.78 0 0 0 -1 .6 2.51 2.51 0 0 0 -.47 1.27 15.82 15.82 0 0 0 -.12 2.18v17.63z"/><path d="m129.59 262.85v-1.12a11.41 11.41 0 0 0 1.81-.16 2.17 2.17 0 0 0 1.08-.5 1.88 1.88 0 0 0 .51-1 8.51 8.51 0 0 0 .14-1.7v-13.73a10.53 10.53 0 0 0 -.13-1.64 2 2 0 0 0 -.41-1 1.56 1.56 0 0 0 -.9-.5 9.89 9.89 0 0 0 -1.53-.19v-1.12h10.35a13.29 13.29 0 0 1 4.9.88 11.76 11.76 0 0 1 3.89 2.45 11.07 11.07 0 0 1 2.55 3.71 11.89 11.89 0 0 1 .92 4.69 11.22 11.22 0 0 1 -.86 4.43 10.09 10.09 0 0 1 -2.4 3.47 11 11 0 0 1 -3.7 2.25 13.29 13.29 0 0 1 -4.72.81zm7.13-21.25a.44.44 0 0 0 -.5.5v16c0 2.24 1.47 3.36 4.39 3.36a7.86 7.86 0 0 0 6.19-2.4c1.44-1.61 2.15-4 2.15-7.06a15 15 0 0 0 -.58-4.37 9.42 9.42 0 0 0 -1.7-3.24 7.48 7.48 0 0 0 -2.67-2 8.49 8.49 0 0 0 -3.53-.71z"/><path d="m168.91 254.63h-7.91c-.34.81-.62 1.52-.86 2.14s-.42 1.15-.57 1.6a9.78 9.78 0 0 0 -.31 1.15 4.33 4.33 0 0 0 -.09.77 1.19 1.19 0 0 0 .53 1.13 3.7 3.7 0 0 0 1.77.31v1.12h-7.16v-1.12a8.48 8.48 0 0 0 1.16-.23 2.87 2.87 0 0 0 .86-.42 2.54 2.54 0 0 0 .65-.69 7.22 7.22 0 0 0 .54-1.05l7.66-19.18h1.27l6.69 16.62c.45 1.1.85 2 1.18 2.64a6.6 6.6 0 0 0 1 1.49 2.22 2.22 0 0 0 1 .65 5.53 5.53 0 0 0 1.31.14v1.15h-9.6v-1.15a5.53 5.53 0 0 0 2.15-.29 1 1 0 0 0 .59-1 4.68 4.68 0 0 0 0-.55 4.45 4.45 0 0 0 -.11-.55c0-.19-.11-.41-.2-.66l-.34-.87zm-7.28-1.47h6.72l-3.27-8.7z"/><path d="m200.45 245.79h-1.21a7.81 7.81 0 0 0 -.41-2.13 3.23 3.23 0 0 0 -.93-1.34 3.8 3.8 0 0 0 -1.52-.69 9.88 9.88 0 0 0 -2.18-.21c-.73 0-1.31 0-1.76.05a4.16 4.16 0 0 0 -1 .16.84.84 0 0 0 -.46.28.78.78 0 0 0 -.1.43v15.77a8.42 8.42 0 0 0 .13 1.62 2.23 2.23 0 0 0 .53 1.1 2.42 2.42 0 0 0 1.15.65 7.87 7.87 0 0 0 2 .25v1.12h-11.16v-1.12a8 8 0 0 0 2-.25 2.44 2.44 0 0 0 1.17-.65 2.23 2.23 0 0 0 .53-1.1 8.42 8.42 0 0 0 .13-1.62v-15.77a.78.78 0 0 0 -.1-.43.83.83 0 0 0 -.42-.28 3.14 3.14 0 0 0 -.86-.16c-.38 0-.88-.05-1.51-.05s-1.48 0-2.14.09a4 4 0 0 0 -1.7.52 3 3 0 0 0 -1.17 1.31 5.88 5.88 0 0 0 -.47 2.45h-1.09v-5.63h22.25z"/><path d="m208.61 257.28a17.68 17.68 0 0 0 .12 2.33 3 3 0 0 0 .46 1.33 1.6 1.6 0 0 0 1 .62 9.55 9.55 0 0 0 1.66.17v1.12h-9.55v-1.12a7.77 7.77 0 0 0 1.67-.19 1.85 1.85 0 0 0 1-.6 2.66 2.66 0 0 0 .47-1.26 15.69 15.69 0 0 0 .12-2.19v-12a16.4 16.4 0 0 0 -.11-2.05 3 3 0 0 0 -.41-1.28 1.7 1.7 0 0 0 -.9-.66 6.23 6.23 0 0 0 -1.53-.25v-1.12h9v1.12a5.41 5.41 0 0 0 -1.52.23 1.66 1.66 0 0 0 -.88.7 3.16 3.16 0 0 0 -.42 1.34 21 21 0 0 0 -.1 2.18z"/><path d="m227.12 239.86a12.63 12.63 0 0 1 4.83.92 12.14 12.14 0 0 1 3.9 2.5 11.6 11.6 0 0 1 2.59 3.75 11.4 11.4 0 0 1 .94 4.65 10.6 10.6 0 0 1 -1 4.48 11.27 11.27 0 0 1 -2.6 3.64 12.43 12.43 0 0 1 -3.89 2.45 13.28 13.28 0 0 1 -9.61 0 12.31 12.31 0 0 1 -3.89-2.45 11.3 11.3 0 0 1 -2.61-3.64 10.6 10.6 0 0 1 -1-4.48 11.4 11.4 0 0 1 .94-4.65 11.63 11.63 0 0 1 2.6-3.75 12.09 12.09 0 0 1 3.89-2.5 12.63 12.63 0 0 1 4.83-.92m0 21.67a8.62 8.62 0 0 0 3.49-.68 7.35 7.35 0 0 0 2.66-2 8.72 8.72 0 0 0 1.69-3.08 13.16 13.16 0 0 0 .59-4 14.48 14.48 0 0 0 -.59-4.26 9.39 9.39 0 0 0 -1.68-3.24 7.54 7.54 0 0 0 -2.65-2.07 8.92 8.92 0 0 0 -7 0 7.54 7.54 0 0 0 -2.65 2.07 9.39 9.39 0 0 0 -1.68 3.24 14.48 14.48 0 0 0 -.59 4.26 13.16 13.16 0 0 0 .59 4 8.7 8.7 0 0 0 1.78 3.13 7.23 7.23 0 0 0 2.65 2 8.79 8.79 0 0 0 3.51.68"/><path d="m261.52 263.15-14-18.45h-.12v12.58a20.38 20.38 0 0 0 .1 2.33 3.11 3.11 0 0 0 .42 1.33 1.45 1.45 0 0 0 .88.62 7.92 7.92 0 0 0 1.52.17v1.12h-7.93v-1.12a7.67 7.67 0 0 0 1.66-.19 1.78 1.78 0 0 0 1-.6 2.5 2.5 0 0 0 .47-1.26 15.69 15.69 0 0 0 .12-2.19v-12a16.65 16.65 0 0 0 -.1-2.05 3.11 3.11 0 0 0 -.41-1.28 1.7 1.7 0 0 0 -.9-.66 6.41 6.41 0 0 0 -1.54-.25v-1.12h5.84l12.88 17.18h.12v-11.58a23.22 23.22 0 0 0 -.1-2.32 3.11 3.11 0 0 0 -.42-1.34 1.45 1.45 0 0 0 -.88-.62 7.92 7.92 0 0 0 -1.52-.17v-1.12h7.93v1.12a7.85 7.85 0 0 0 -1.67.19 1.79 1.79 0 0 0 -1 .6 2.51 2.51 0 0 0 -.47 1.27 15.82 15.82 0 0 0 -.12 2.18v17.63z"/></g><path d="m43.63 32.74 3.58 11h11.57l-9.36 6.8 3.57 11-9.36-6.8-9.36 6.8 3.58-11-9.36-6.8h11.57z" fill="#b12029"/><path d="m244.99 32.74 3.57 11h11.57l-9.36 6.8 3.58 11-9.36-6.8-9.36 6.8 3.57-11-9.36-6.8h11.57z" fill="#b12029"/><path d="m194.65 32.74 3.57 11h11.57l-9.36 6.8 3.58 11-9.36-6.8-9.36 6.8 3.58-11-9.36-6.8h11.56z" fill="#b12029"/><path d="m144.31 32.74 3.57 11h11.57l-9.36 6.8 3.58 11-9.36-6.8-9.36 6.8 3.58-11-9.36-6.8h11.57z" fill="#b12029"/><path d="m93.97 32.74 3.58 11h11.56l-9.36 6.8 3.58 11-9.36-6.8-9.36 6.8 3.58-11-9.36-6.8h11.57z" fill="#b12029"/></g></svg>